<?xml version="1.0" encoding="UTF-8" standalone="no"?><!DOCTYPE svg PUBLIC "-//W3C//DTD SVG 1.1//EN" "http://www.w3.org/Graphics/SVG/1.1/DTD/svg11.dtd"><svg width="100%" height="100%" viewBox="0 0 35 35" version="1.1" xmlns="http://www.w3.org/2000/svg" xmlns:xlink="http://www.w3.org/1999/xlink" xml:space="preserve" xmlns:serif="http://www.serif.com/" style="fill-rule:evenodd;clip-rule:evenodd;stroke-linecap:round;stroke-linejoin:round;stroke-miterlimit:1.5;"><g id="Layer1"><path d="M6.404,4.527l6.776,6.122l0.567,-0.341l6.451,-5.057" style="fill:none;stroke:#646464;stroke-width:1px;"/><path d="M20.198,5.251l9.964,16.46" style="fill:none;stroke:#646464;stroke-width:1px;"/><path d="M30.127,22.823l-13.514,6.621" style="fill:none;stroke:#646464;stroke-width:1px;"/><path d="M12.95,10.441l17.143,11.994" style="fill:none;stroke:#646464;stroke-width:1px;"/><path d="M4.768,16.849l8.182,-6.408l4.273,18.698" style="fill:none;stroke:#646464;stroke-width:1px;"/><circle cx="5.959" cy="4.953" r="1.73" style="fill:#e02d45;"/><circle cx="20.436" cy="5.171" r="1.73" style="fill:#e02d45;"/><circle cx="16.443" cy="29.351" r="1.73" style="fill:#e02d45;"/><circle cx="29.918" cy="22.384" r="1.73" style="fill:#e02d45;"/><circle cx="3.967" cy="17.112" r="1.73" style="fill:#2de0ce;stroke:#2be0ce;stroke-width:0.75px;"/><circle cx="12.911" cy="10.485" r="1.73" style="fill:#2de0ce;stroke:#2be0ce;stroke-width:0.75px;"/></g><path d="M11.875,21.214l-5.786,7.945l1.27,1.061c-0,0 2.22,0.444 4.333,-1.28c2.115,-1.723 2.769,-3.471 2.977,-3.941c0.208,-0.47 1.145,-2.153 2.35,-2.821c1.815,-1.004 3.62,-0.788 4.219,-0.921c0.6,-0.129 1.697,-0.497 2.48,-1.723c0.784,-1.227 0.611,-2.448 1.864,-3.388c1.254,-0.94 2.615,-0.672 4.179,-1.64c1.567,-0.967 2.88,-3.093 3.209,-3.79c0.476,-1.004 0.83,-1.958 0.814,-2.623c-0.014,-0.497 -0.26,-0.845 -0.8,-1.134c-0.44,-0.235 -0.697,-0.335 -0.697,-0.335l-20.412,14.59Z" style="fill:#fc873d;fill-rule:nonzero;"/><path d="M13.496,16.776l-3.604,2.715c0,-0 -4.538,5.929 -4.603,6.107c-0.062,0.176 -0.243,0.357 -0.67,0.584c-0.386,0.205 -1.067,0.494 -1.067,0.494c0,0 1.483,1.535 1.926,1.951c0.443,0.418 1.281,1.086 1.281,1.086c-0,-0 2.034,0.01 3.887,-1.529c1.853,-1.54 2.612,-3.526 3.08,-4.622c0.47,-1.097 1.383,-2.559 2.534,-3.08c1.148,-0.521 3.863,-0.392 5.665,-1.751c1.801,-1.358 1.331,-3.157 2.82,-4.203c1.488,-1.045 2.653,-0.732 3.944,-1.58c1.359,-0.894 2.285,-2.278 2.823,-3.266c0.589,-1.081 1.142,-2.896 1.142,-2.896c0,-0 -1.096,-0.64 -2.401,-1.162c-1.005,-0.402 -2.245,-0.81 -2.245,-0.81c0,-0 -2.01,2.847 -2.558,3.42c-0.549,0.573 -4.125,1.645 -4.125,1.645l-3.523,4.938l-4.306,1.959Z" style="fill:#d9411c;fill-rule:nonzero;"/><path d="M3.563,25.009l-1.696,-0.37c-0,0 -0.83,-0.921 -0.978,-1.199c-0.149,-0.276 -0.038,-0.608 0.386,-0.646c0.424,-0.037 1.715,-0.037 2.529,-0.129c0.81,-0.092 2.323,-0.406 3.266,-1.567c0.94,-1.162 1.364,-2.864 1.604,-3.893c0.341,-1.45 1.216,-2.266 2.507,-2.58c1.291,-0.313 3.615,-0.251 4.463,-0.915c0.848,-0.665 1.113,-2.85 1.404,-3.755c0.387,-1.2 1.2,-1.864 2.067,-1.918c1.062,-0.068 2.304,0.502 2.304,0.502l-1.491,1.767l-1.769,4.703c-0,-0 -6.462,2.018 -6.548,2.018c-0.087,-0 -2.424,3.722 -2.567,3.952c-0.143,0.23 -2.193,3.115 -2.682,3.201c-0.495,0.089 -2.799,0.829 -2.799,0.829Z" style="fill:#b42f17;fill-rule:nonzero;"/><path d="M25.685,4.336c-0.651,-0.003 -0.829,0.829 -0.905,1.291c-0.073,0.462 -0.111,1.218 -0.516,1.918c-0.405,0.7 -0.997,0.997 -0.997,0.997c0,-0 -3.76,-0.5 -4.781,1.588c-1.094,2.24 -0.514,3.539 -1.824,4.574c-2.137,1.685 -4.003,0.183 -5.975,1.955c-1.497,1.343 -2.029,5.552 -4.482,6.919c-2.453,1.367 -4.39,0.999 -4.39,0.999l0.959,1.216c0,-0 1.092,-0.257 1.797,-0.357c0.321,-0.046 0.491,-0.008 0.567,0.014c0.17,0.054 0.13,0.205 0.13,0.205c-0,0 1.215,-0.416 2.431,-1.505c1.218,-1.088 2.472,-3.522 2.712,-4.057c0.241,-0.535 0.757,-1.44 1.032,-1.181c0.276,0.26 -0.648,3.693 -2.177,5.849c-1.291,1.818 -2.669,2.347 -3.507,2.685c-0.81,0.327 -1.129,0.362 -1.129,0.362c0,0 0.338,0.346 0.613,0.613c0.2,0.195 0.576,0.527 0.576,0.527c-0,0 1.821,-0.332 4.071,-2.509c2.25,-2.178 3.104,-6.216 4.643,-8.207c1.332,-1.724 3.123,-1.84 4.009,-2.226c0.886,-0.387 1.529,-1.021 1.862,-2.24c0.332,-1.218 0.572,-3.285 2.361,-3.763c1.788,-0.478 3.836,0.111 4.611,-1.585c0.775,-1.697 0.783,-3.542 0.783,-3.542c0,0 -1.566,-0.538 -2.474,-0.54Z" style="fill:#feb896;fill-rule:nonzero;"/><path d="M21.633,11.076c0.327,-0.135 1.307,0.451 1.45,0.97c0.141,0.521 0.141,0.815 0.408,1.096c0.268,0.281 0.93,0.484 0.943,0.789c0.019,0.373 -1.126,1.337 -2.447,0.9c-1.324,-0.435 -1.211,-1.354 -1.224,-1.524c-0.014,-0.17 0.462,-2.061 0.87,-2.231Z" style="fill:#fc6b4a;fill-rule:nonzero;"/><path d="M18.41,9.625c-0.038,-0.159 -0.856,-0.47 -1.113,0.189c-0.265,0.681 -0.313,1.148 -0.032,1.456c0.167,0.184 0.364,0.195 0.475,0.1c0.111,-0.094 0.065,-0.286 0.378,-0.999c0.127,-0.295 0.333,-0.573 0.292,-0.746Z" style="fill:#fc6b4a;fill-rule:nonzero;"/><path d="M17.881,11.821c-0,0 0.099,0.081 0.41,0.089c0.449,0.014 0.665,-0.405 1.019,-0.264c0.383,0.151 0.47,0.581 0.518,0.859c0.054,0.297 0.206,0.464 0.395,0.502c0.17,0.033 0.386,-0.07 0.386,-0.07c-0,-0 0.13,-0.538 0.365,-1.167c0.124,-0.335 0.426,-0.805 0.426,-0.805c0,-0 -0.132,-0.27 -0.61,-0.351c-0.422,-0.07 -0.638,0.202 -1.081,-0.038c-0.362,-0.197 -0.243,-0.448 -0.578,-0.724c-0.259,-0.216 -0.346,-0.186 -0.346,-0.186c0,-0 -0.256,0.281 -0.505,0.886c-0.224,0.556 -0.399,1.269 -0.399,1.269Z" style="fill:#faffff;fill-rule:nonzero;"/><path d="M26.593,5.827c-0.376,0.135 -0.827,1.089 -0.495,1.677c0.332,0.589 1.421,0.589 1.421,0.589c0,0 0.192,-0.513 0.281,-0.859c0.089,-0.345 0.189,-0.788 0.189,-0.788c0,-0 -0.508,-0.238 -0.689,-0.379c-0.175,-0.137 -0.348,-0.37 -0.707,-0.24Z" style="fill:#faffff;fill-rule:nonzero;"/><path d="M27.997,6.448c0,0 0.522,0.254 1.524,0.162c0.791,-0.073 1.191,-0.075 1.41,0.192c0.219,0.27 0.197,0.708 0.089,1.245c-0.14,0.708 -0.492,0.878 -1.037,0.703c-0.554,-0.178 -1.124,-0.386 -1.37,-0.457c-0.459,-0.127 -1.086,-0.197 -1.086,-0.197c0,0 0.178,-0.502 0.268,-0.824c0.089,-0.321 0.202,-0.824 0.202,-0.824Z" style="fill:#fc6b48;fill-rule:nonzero;"/><path d="M10.122,15.438c-0.278,0.019 -0.935,0.689 -0.864,1.13c0.054,0.337 0.432,0.551 0.524,0.589c0.237,0.097 0.499,-0.406 0.648,-0.557c0.149,-0.151 0.481,-0.365 0.462,-0.556c-0.027,-0.268 -0.421,-0.627 -0.77,-0.606Z" style="fill:#fa6c43;fill-rule:nonzero;"/><path d="M10.036,17.489c-0.079,0.159 0.343,0.537 0.613,0.678c0.27,0.14 0.783,-0.208 1.245,0.138c0.462,0.345 0.305,0.913 0.473,1.115c0.167,0.206 0.465,0.508 0.848,0.622c0.276,0.081 0.354,-0.184 0.624,-0.7c0.273,-0.519 0.368,-0.546 0.354,-0.7c-0.016,-0.2 -0.597,-0.807 -1.07,-1.129c-0.472,-0.321 -1.14,-0.627 -1.331,-0.821c-0.192,-0.192 -0.349,-0.573 -0.506,-0.484c-0.11,0.062 -0.426,0.249 -0.71,0.551c-0.219,0.233 -0.457,0.562 -0.54,0.73Z" style="fill:#fefeff;fill-rule:nonzero;"/><path d="M14.234,19.318c-0.303,0.119 -0.657,0.88 -0.676,1.083c-0.021,0.251 0.546,0.783 0.878,0.783c0.333,0 0.794,-0.794 0.719,-1.064c-0.079,-0.267 -0.649,-0.91 -0.921,-0.802Z" style="fill:#fa6c43;fill-rule:nonzero;"/></svg>